<svg width="16" height="16" viewBox="0 0 16 16" fill="none" xmlns="http://www.w3.org/2000/svg">
<path d="M5.82 4.51C5.53833 4.13445 5.61445 3.60167 5.99 3.32C6.36555 3.03833 6.89833 3.11445 7.18 3.49L5.82 4.51ZM9.5 8L10.18 7.49C10.4067 7.79222 10.4067 8.20778 10.18 8.51L9.5 8ZM7.18 12.51C6.89833 12.8856 6.36555 12.9617 5.99 12.68C5.61445 12.3983 5.53833 11.8656 5.82 11.49L7.18 12.51ZM7.18 3.49L10.18 7.49L8.82 8.51L5.82 4.51L7.18 3.49ZM10.18 8.51L7.18 12.51L5.82 11.49L8.82 7.49L10.18 8.51Z" fill="black"/>
</svg>
