<svg width="20" height="20" viewBox="0 0 20 20" fill="none" xmlns="http://www.w3.org/2000/svg">
<path fill-rule="evenodd" clip-rule="evenodd" d="M8.90909 3.5C5.92173 3.5 3.5 5.92173 3.5 8.90909C3.5 11.8964 5.92173 14.3182 8.90909 14.3182C11.8964 14.3182 14.3182 11.8964 14.3182 8.90909C14.3182 5.92173 11.8964 3.5 8.90909 3.5ZM2.5 8.90909C2.5 5.36945 5.36945 2.5 8.90909 2.5C12.4487 2.5 15.3182 5.36945 15.3182 8.90909C15.3182 12.4487 12.4487 15.3182 8.90909 15.3182C5.36945 15.3182 2.5 12.4487 2.5 8.90909Z" fill="#2E3C41"/>
<path fill-rule="evenodd" clip-rule="evenodd" d="M14.6464 14.6464C14.8417 14.4512 15.1583 14.4512 15.3536 14.6464L18.3536 17.6464C18.5488 17.8417 18.5488 18.1583 18.3536 18.3536C18.1583 18.5488 17.8417 18.5488 17.6464 18.3536L14.6464 15.3536C14.4512 15.1583 14.4512 14.8417 14.6464 14.6464Z" fill="#2E3C41"/>
</svg>
