<svg width="20" height="20" viewBox="0 0 20 20" fill="none" xmlns="http://www.w3.org/2000/svg">
<path fill-rule="evenodd" clip-rule="evenodd" d="M4.6 1.36666C4.69443 1.24075 4.84262 1.16666 5 1.16666H15C15.1574 1.16666 15.3056 1.24075 15.4 1.36666L17.9 4.69999C17.9649 4.78654 18 4.89181 18 4.99999V16.6667C18 17.2413 17.7717 17.7924 17.3654 18.1987C16.9591 18.6051 16.408 18.8333 15.8333 18.8333H4.16667C3.59203 18.8333 3.04093 18.6051 2.6346 18.1987C2.22827 17.7924 2 17.2413 2 16.6667V4.99999C2 4.89181 2.03509 4.78654 2.1 4.69999L4.6 1.36666ZM5.25 2.16666L3 5.16666V16.6667C3 16.9761 3.12292 17.2728 3.34171 17.4916C3.5605 17.7104 3.85725 17.8333 4.16667 17.8333H15.8333C16.1428 17.8333 16.4395 17.7104 16.6583 17.4916C16.8771 17.2728 17 16.9761 17 16.6667V5.16666L14.75 2.16666H5.25Z" fill="#38302B"/>
<path fill-rule="evenodd" clip-rule="evenodd" d="M2 4.99999C2 4.72385 2.22386 4.49997 2.5 4.49997H17.5C17.7761 4.49997 18 4.72385 18 4.99999C18 5.27613 17.7761 5.49997 17.5 5.49997H2.5C2.22386 5.49997 2 5.27613 2 4.99999Z" fill="#38302B"/>
<path fill-rule="evenodd" clip-rule="evenodd" d="M6.66667 7.83328C6.94281 7.83328 7.16667 8.05714 7.16667 8.33328C7.16667 9.08473 7.46518 9.8054 7.99654 10.3368C8.52789 10.8681 9.24856 11.1666 10 11.1666C10.7515 11.1666 11.4721 10.8681 12.0035 10.3368C12.5348 9.8054 12.8333 9.08473 12.8333 8.33328C12.8333 8.05714 13.0572 7.83328 13.3333 7.83328C13.6095 7.83328 13.8333 8.05714 13.8333 8.33328C13.8333 9.34995 13.4295 10.325 12.7106 11.0439C11.9917 11.7627 11.0167 12.1666 10 12.1666C8.98334 12.1666 8.00832 11.7627 7.28943 11.0439C6.57054 10.325 6.16667 9.34995 6.16667 8.33328C6.16667 8.05714 6.39053 7.83328 6.66667 7.83328Z" fill="#38302B"/>
</svg>
